<svg width="30" height="30" viewBox="0 0 30 30" fill="none" xmlns="http://www.w3.org/2000/svg">
<path d="M14.9695 2.50045C14.7696 2.50728 14.5771 2.57786 14.4202 2.70187L5.53711 9.70016C4.40967 10.5887 3.75 11.9464 3.75 13.3818V25.313C3.75 26.1652 4.46025 26.8755 5.3125 26.8755H11.5625C12.4147 26.8755 13.125 26.1652 13.125 25.313V19.063C13.125 18.8786 13.2531 18.7505 13.4375 18.7505H16.5625C16.7469 18.7505 16.875 18.8786 16.875 19.063V25.313C16.875 26.1652 17.5853 26.8755 18.4375 26.8755H24.6875C25.5397 26.8755 26.25 26.1652 26.25 25.313V13.3818C26.25 11.9464 25.5903 10.5887 24.4629 9.70016L15.5798 2.70187C15.4065 2.56492 15.1903 2.49358 14.9695 2.50045ZM15 4.6318L23.3032 11.1735C23.9808 11.7075 24.375 12.5197 24.375 13.3818V25.0005H18.75V19.063C18.75 17.8661 17.7593 16.8755 16.5625 16.8755H13.4375C12.2407 16.8755 11.25 17.8661 11.25 19.063V25.0005H5.625V13.3818C5.625 12.5197 6.01921 11.7075 6.69678 11.1735L15 4.6318Z" fill="#434343"/>
</svg>
