<svg width="30" height="30" viewBox="0 0 30 30" fill="none" xmlns="http://www.w3.org/2000/svg">
<path d="M12.8125 1.875C11.3771 1.875 10.1911 2.97914 10.0317 4.375H7.8125C6.27031 4.375 5 5.64531 5 7.1875V24.0625C5 25.6047 6.27031 26.875 7.8125 26.875H22.1875C23.7297 26.875 25 25.6047 25 24.0625V7.1875C25 5.64531 23.7297 4.375 22.1875 4.375H19.9683C19.8089 2.97914 18.6229 1.875 17.1875 1.875H12.8125ZM12.8125 3.75H17.1875C17.7166 3.75 18.125 4.15844 18.125 4.6875C18.125 5.21656 17.7166 5.625 17.1875 5.625H12.8125C12.2834 5.625 11.875 5.21656 11.875 4.6875C11.875 4.15844 12.2834 3.75 12.8125 3.75ZM7.8125 6.25H10.481C10.9883 7.00119 11.8467 7.5 12.8125 7.5H17.1875C18.1533 7.5 19.0117 7.00119 19.519 6.25H22.1875C22.7166 6.25 23.125 6.65844 23.125 7.1875V24.0625C23.125 24.5916 22.7166 25 22.1875 25H7.8125C7.28344 25 6.875 24.5916 6.875 24.0625V7.1875C6.875 6.65844 7.28344 6.25 7.8125 6.25ZM15 10C14.0365 10 13.1951 10.3951 12.6587 10.9985C12.1223 11.602 11.875 12.3698 11.875 13.125C11.875 13.8802 12.1223 14.648 12.6587 15.2515C13.1951 15.8549 14.0365 16.25 15 16.25C15.9635 16.25 16.8049 15.8549 17.3413 15.2515C17.8777 14.648 18.125 13.8802 18.125 13.125C18.125 12.3698 17.8777 11.602 17.3413 10.9985C16.8049 10.3951 15.9635 10 15 10ZM15 11.875C15.4948 11.875 15.7472 12.0268 15.9399 12.2437C16.1327 12.4605 16.25 12.7865 16.25 13.125C16.25 13.4635 16.1327 13.7895 15.9399 14.0063C15.7472 14.2232 15.4948 14.375 15 14.375C14.5052 14.375 14.2528 14.2232 14.0601 14.0063C13.8673 13.7895 13.75 13.4635 13.75 13.125C13.75 12.7865 13.8673 12.4605 14.0601 12.2437C14.2528 12.0268 14.5052 11.875 15 11.875ZM11.5625 17.5C10.7103 17.5 10 18.2103 10 19.0625V20C10 21.0745 10.7729 21.8816 11.6833 22.3718C12.5938 22.8621 13.7417 23.125 15 23.125C16.2583 23.125 17.4062 22.8621 18.3167 22.3718C19.2271 21.8816 20 21.0745 20 20V19.0625C20 18.2103 19.2897 17.5 18.4375 17.5H11.5625ZM11.875 19.375H18.125V20C18.125 20.1336 17.9879 20.42 17.428 20.7214C16.8681 21.0229 15.9855 21.25 15 21.25C14.0145 21.25 13.1319 21.0229 12.572 20.7214C12.0121 20.42 11.875 20.1336 11.875 20V19.375Z" fill="#434343"/>
</svg>
