<svg width="30" height="30" viewBox="0 0 30 30" fill="none" xmlns="http://www.w3.org/2000/svg">
<path d="M12.3633 2.8125L12.2168 3.57422L11.6602 6.35742C10.7666 6.70898 9.96094 7.20337 9.22852 7.79297L6.50391 6.85547L5.77148 6.62109L5.39062 7.29492L3.51562 10.5176L3.13477 11.1914L3.69141 11.6895L5.80078 13.5352C5.72388 14.0149 5.625 14.4946 5.625 15C5.625 15.5054 5.72388 15.9851 5.80078 16.4648L3.69141 18.3105L3.13477 18.8086L3.51562 19.4824L5.39062 22.7051L5.77148 23.3789L6.50391 23.1445L9.22852 22.207C9.96094 22.7966 10.7666 23.291 11.6602 23.6426L12.2168 26.4258L12.3633 27.1875H17.6367L17.7832 26.4258L18.3398 23.6426C19.2334 23.291 20.0391 22.7966 20.7715 22.207L23.4961 23.1445L24.2285 23.3789L24.6094 22.7051L26.4844 19.4824L26.8652 18.8086L26.3086 18.3105L24.1992 16.4648C24.2761 15.9851 24.375 15.5054 24.375 15C24.375 14.4946 24.2761 14.0149 24.1992 13.5352L26.3086 11.6895L26.8652 11.1914L26.4844 10.5176L24.6094 7.29492L24.2285 6.62109L23.4961 6.85547L20.7715 7.79297C20.0391 7.20337 19.2334 6.70898 18.3398 6.35742L17.7832 3.57422L17.6367 2.8125H12.3633ZM13.8867 4.6875H16.1133L16.582 7.11914L16.6992 7.67578L17.2266 7.85156C18.2922 8.18481 19.259 8.74878 20.0684 9.49219L20.4785 9.87305L21.0059 9.69727L23.3789 8.87695L24.4922 10.7812L22.6172 12.4512L22.1777 12.8027L22.3242 13.3594C22.4451 13.894 22.5 14.4397 22.5 15C22.5 15.5603 22.4451 16.106 22.3242 16.6406L22.207 17.1973L22.6172 17.5488L24.4922 19.2188L23.3789 21.123L21.0059 20.3027L20.4785 20.127L20.0684 20.5078C19.259 21.2512 18.2922 21.8152 17.2266 22.1484L16.6992 22.3242L16.582 22.8809L16.1133 25.3125H13.8867L13.418 22.8809L13.3008 22.3242L12.7734 22.1484C11.7078 21.8152 10.741 21.2512 9.93164 20.5078L9.52148 20.127L8.99414 20.3027L6.62109 21.123L5.50781 19.2188L7.38281 17.5488L7.82227 17.1973L7.67578 16.6406C7.55493 16.106 7.5 15.5603 7.5 15C7.5 14.4397 7.55493 13.894 7.67578 13.3594L7.82227 12.8027L7.38281 12.4512L5.50781 10.7812L6.62109 8.87695L8.99414 9.69727L9.52148 9.87305L9.93164 9.49219C10.741 8.74878 11.7078 8.18481 12.7734 7.85156L13.3008 7.67578L13.418 7.11914L13.8867 4.6875ZM15 10.3125C12.4219 10.3125 10.3125 12.4219 10.3125 15C10.3125 17.5781 12.4219 19.6875 15 19.6875C17.5781 19.6875 19.6875 17.5781 19.6875 15C19.6875 12.4219 17.5781 10.3125 15 10.3125ZM15 12.1875C16.5637 12.1875 17.8125 13.4363 17.8125 15C17.8125 16.5637 16.5637 17.8125 15 17.8125C13.4363 17.8125 12.1875 16.5637 12.1875 15C12.1875 13.4363 13.4363 12.1875 15 12.1875Z" fill="#434343"/>
</svg>
