<svg width="30" height="30" viewBox="0 0 30 30" fill="none" xmlns="http://www.w3.org/2000/svg">
<path d="M14.3751 1.25C11.2337 1.25 8.75015 4.09315 8.75015 7.5C8.75015 10.9068 11.2337 13.75 14.3751 13.75C17.5166 13.75 20.0001 10.9068 20.0001 7.5C20.0001 4.09315 17.5166 1.25 14.3751 1.25ZM14.3751 2.5C16.7566 2.5 18.7501 4.69364 18.7501 7.5C18.7501 10.3064 16.7566 12.5 14.3751 12.5C11.9937 12.5 10.0001 10.3064 10.0001 7.5C10.0001 4.69364 11.9937 2.5 14.3751 2.5ZM16.8825 15.26C16.7411 15.2589 16.6036 15.3057 16.4923 15.3929C16.381 15.48 16.3025 15.6023 16.2697 15.7397L16.3026 15.603L14.3751 17.8015L12.3354 15.4749C12.2624 15.3914 12.1685 15.329 12.0634 15.2938C11.9583 15.2586 11.8457 15.252 11.7372 15.2747C7.367 16.1968 3.71814 19.3709 2.26577 23.728L2.10464 24.209C1.57051 25.8105 2.78834 27.5 4.47647 27.5H10.0001C10.083 27.5012 10.1652 27.4859 10.242 27.455C10.3189 27.4241 10.3889 27.3783 10.4478 27.3201C10.5068 27.2619 10.5537 27.1926 10.5856 27.1162C10.6176 27.0398 10.634 26.9578 10.634 26.875C10.634 26.7922 10.6176 26.7102 10.5856 26.6338C10.5537 26.5573 10.5068 26.4881 10.4478 26.4299C10.3889 26.3717 10.3189 26.3259 10.242 26.295C10.1652 26.2641 10.083 26.2488 10.0001 26.25H4.47647C3.60459 26.25 3.01407 25.4317 3.28994 24.6045L3.45108 24.1235C4.72464 20.3028 7.88013 17.5318 11.6701 16.6113L13.6842 18.9087L11.8971 25.4602C11.872 25.552 11.8682 25.6483 11.886 25.7418C11.9037 25.8354 11.9426 25.9236 11.9997 25.9998L13.8747 28.4998C13.9329 28.5776 14.0084 28.6407 14.0953 28.6842C14.1822 28.7277 14.278 28.7504 14.3751 28.7504C14.4723 28.7504 14.5681 28.7277 14.655 28.6842C14.7419 28.6407 14.8174 28.5776 14.8756 28.4998L16.7506 25.9998C16.8077 25.9236 16.8466 25.8354 16.8643 25.7418C16.8821 25.6483 16.8783 25.552 16.8532 25.4602L15.0673 18.9099L17.0876 16.604C18.4693 16.9401 19.7761 17.4986 20.9267 18.2947C20.994 18.3445 21.0707 18.3803 21.1521 18.3999C21.2336 18.4196 21.3182 18.4226 21.4008 18.4089C21.4835 18.3952 21.5625 18.365 21.6333 18.3201C21.7041 18.2752 21.7651 18.2166 21.8127 18.1477C21.8603 18.0787 21.8936 18.0009 21.9106 17.9189C21.9276 17.8368 21.9279 17.7522 21.9115 17.6701C21.8951 17.5879 21.8624 17.5098 21.8153 17.4406C21.7681 17.3713 21.7075 17.3122 21.6371 17.2668C20.2553 16.3108 18.6844 15.6264 17.007 15.2734C16.966 15.2648 16.9243 15.2603 16.8825 15.26ZM24.0626 18.75C23.8969 18.75 23.7379 18.8159 23.6207 18.9331C23.5035 19.0503 23.4377 19.2092 23.4376 19.375V20.1904C22.9475 20.3019 22.4863 20.4911 22.0705 20.7446L21.5028 20.177C21.4436 20.1178 21.3732 20.0711 21.2956 20.0396C21.218 20.0082 21.1349 19.9926 21.0512 19.9939C20.8888 19.9965 20.7338 20.0622 20.619 20.177L20.1772 20.6189C20.06 20.7361 19.9942 20.8951 19.9942 21.0608C19.9942 21.2265 20.06 21.3855 20.1772 21.5027L20.7216 22.0471C20.4403 22.4655 20.2247 22.9297 20.1088 23.4375H19.3751C19.2094 23.4375 19.0504 23.5034 18.9332 23.6206C18.816 23.7378 18.7502 23.8967 18.7501 24.0625V24.6875C18.7502 24.8533 18.816 25.0122 18.9332 25.1294C19.0504 25.2466 19.2094 25.3125 19.3751 25.3125H20.1039C20.2165 25.8241 20.4209 26.3005 20.6959 26.7285L20.1772 27.2473C20.06 27.3645 19.9942 27.5235 19.9942 27.6892C19.9942 27.8549 20.06 28.0139 20.1772 28.1311L20.619 28.573C20.7363 28.6902 20.8952 28.756 21.0609 28.756C21.2267 28.756 21.3856 28.6902 21.5028 28.573L22.0216 28.0542C22.4496 28.3293 22.926 28.5337 23.4376 28.6462V29.375C23.4377 29.5408 23.5035 29.6997 23.6207 29.8169C23.7379 29.9341 23.8969 30 24.0626 30H24.6876C24.8534 30 25.0124 29.9341 25.1296 29.8169C25.2468 29.6997 25.3126 29.5408 25.3126 29.375V28.6462C25.8242 28.5337 26.3007 28.3293 26.7287 28.0542L27.2475 28.573C27.3647 28.6902 27.5236 28.756 27.6894 28.756C27.8551 28.756 28.014 28.6902 28.1313 28.573L28.5731 28.1311C28.6903 28.0139 28.7561 27.8549 28.7561 27.6892C28.7561 27.5235 28.6903 27.3645 28.5731 27.2473L28.0543 26.7285C28.3294 26.3005 28.5338 25.8241 28.6464 25.3125H29.3751C29.5409 25.3125 29.6999 25.2466 29.8171 25.1294C29.9343 25.0122 30.0001 24.8533 30.0001 24.6875V24.0625C30.0001 23.8967 29.9343 23.7378 29.8171 23.6206C29.6999 23.5034 29.5409 23.4375 29.3751 23.4375H28.6415C28.5256 22.9297 28.31 22.4655 28.0287 22.0471L28.5731 21.5027C28.6903 21.3855 28.7561 21.2265 28.7561 21.0608C28.7561 20.8951 28.6903 20.7361 28.5731 20.6189L28.1313 20.177C28.0722 20.1179 28.0019 20.0713 27.9246 20.0399C27.8472 20.0084 27.7643 19.9928 27.6808 19.9939C27.518 19.9962 27.3626 20.0619 27.2475 20.177L26.6798 20.7446C26.264 20.4911 25.8028 20.3019 25.3126 20.1904V19.375C25.3126 19.2092 25.2468 19.0503 25.1296 18.9331C25.0124 18.8159 24.8534 18.75 24.6876 18.75H24.0626ZM14.3751 21.1255L15.5666 25.4944L14.3751 27.0825L13.1837 25.4944L14.3751 21.1255ZM24.3751 21.25C26.1084 21.25 27.5001 22.6417 27.5001 24.375C27.5001 26.1083 26.1084 27.5 24.3751 27.5C22.6419 27.5 21.2501 26.1083 21.2501 24.375C21.2501 22.6417 22.6419 21.25 24.3751 21.25Z" fill="#434343"/>
</svg>
