<svg width="44" height="44" viewBox="0 0 44 44" fill="none" xmlns="http://www.w3.org/2000/svg">
<path d="M8.93213 24.244C8.88013 24.244 8.82864 24.2542 8.78059 24.2741C8.73255 24.294 8.68889 24.3232 8.65212 24.36C8.61535 24.3967 8.58618 24.4404 8.56628 24.4884C8.54638 24.5365 8.53613 24.588 8.53613 24.64C8.53613 24.692 8.54638 24.7435 8.56628 24.7915C8.58618 24.8396 8.61535 24.8832 8.65212 24.92C8.68889 24.9568 8.73255 24.9859 8.78059 25.0058C8.82864 25.0257 8.88013 25.036 8.93213 25.036C8.98414 25.036 9.03563 25.0257 9.08368 25.0058C9.13172 24.9859 9.17538 24.9568 9.21215 24.92C9.24892 24.8832 9.27809 24.8396 9.29799 24.7915C9.31789 24.7435 9.32813 24.692 9.32813 24.64C9.32813 24.588 9.31789 24.5365 9.29799 24.4884C9.27809 24.4404 9.24892 24.3967 9.21215 24.36C9.17538 24.3232 9.13172 24.294 9.08368 24.2741C9.03563 24.2542 8.98414 24.244 8.93213 24.244ZM34.9361 13.376C34.8544 13.376 34.7761 13.4084 34.7183 13.4662C34.6606 13.5239 34.6281 13.6023 34.6281 13.684C34.6281 13.7657 34.6606 13.844 34.7183 13.9018C34.7761 13.9595 34.8544 13.992 34.9361 13.992C35.0178 13.992 35.0962 13.9595 35.1539 13.9018C35.2117 13.844 35.2441 13.7657 35.2441 13.684C35.2441 13.6023 35.2117 13.5239 35.1539 13.4662C35.0962 13.4084 35.0178 13.376 34.9361 13.376Z" fill="white"/>
<path d="M33.7479 4.92773C33.6959 4.92773 33.6444 4.93798 33.5963 4.95788C33.5483 4.97778 33.5046 5.00695 33.4678 5.04372C33.4311 5.08049 33.4019 5.12415 33.382 5.17219C33.3621 5.22024 33.3519 5.27173 33.3519 5.32373C33.3519 5.37574 33.3621 5.42723 33.382 5.47528C33.4019 5.52332 33.4311 5.56698 33.4678 5.60375C33.5046 5.64052 33.5483 5.66969 33.5963 5.68959C33.6444 5.70949 33.6959 5.71973 33.7479 5.71973C33.7999 5.71973 33.8514 5.70949 33.8994 5.68959C33.9474 5.66969 33.9911 5.64052 34.0279 5.60375C34.0646 5.56698 34.0938 5.52332 34.1137 5.47528C34.1336 5.42723 34.1439 5.37574 34.1439 5.32373C34.1439 5.27173 34.1336 5.22024 34.1137 5.17219C34.0938 5.12415 34.0646 5.08049 34.0279 5.04372C33.9911 5.00695 33.9474 4.97778 33.8994 4.95788C33.8514 4.93798 33.7999 4.92773 33.7479 4.92773ZM9.15186 27.6317C9.04683 27.6317 8.94611 27.6735 8.87185 27.7477C8.79758 27.822 8.75586 27.9227 8.75586 28.0277C8.75586 28.1328 8.79758 28.2335 8.87185 28.3077C8.94611 28.382 9.04683 28.4237 9.15186 28.4237C9.25688 28.4237 9.35761 28.382 9.43187 28.3077C9.50614 28.2335 9.54786 28.1328 9.54786 28.0277C9.54786 27.9227 9.50614 27.822 9.43187 27.7477C9.35761 27.6735 9.25688 27.6317 9.15186 27.6317Z" fill="#F1BC19"/>
<path d="M21.8242 5.23633C19.6631 5.23633 17.5233 5.66198 15.5267 6.48897C13.5302 7.31596 11.7161 8.5281 10.188 10.0562C8.65993 11.5843 7.44779 13.3984 6.6208 15.3949C5.79381 17.3914 5.36816 19.5313 5.36816 21.6923C5.36816 23.8534 5.79381 25.9932 6.6208 27.9898C7.44779 29.9863 8.65993 31.8004 10.188 33.3285C11.7161 34.8566 13.5302 36.0687 15.5267 36.8957C17.5233 37.7227 19.6631 38.1483 21.8242 38.1483C23.9852 38.1483 26.1251 37.7227 28.1216 36.8957C30.1181 36.0687 31.9322 34.8566 33.4603 33.3285C34.9884 31.8004 36.2005 29.9863 37.0275 27.9898C37.8545 25.9932 38.2802 23.8534 38.2802 21.6923C38.2802 19.5313 37.8545 17.3914 37.0275 15.3949C36.2005 13.3984 34.9884 11.5843 33.4603 10.0562C31.9322 8.5281 30.1181 7.31596 28.1216 6.48897C26.1251 5.66198 23.9852 5.23633 21.8242 5.23633Z" fill="#C0E5E4"/>
<path d="M36.1682 4.48828C35.7014 4.48828 35.2538 4.67371 34.9237 5.00377C34.5936 5.33384 34.4082 5.7815 34.4082 6.24828C34.4082 6.71506 34.5936 7.16273 34.9237 7.49279C35.2538 7.82285 35.7014 8.00828 36.1682 8.00828C36.635 8.00828 37.0826 7.82285 37.4127 7.49279C37.7428 7.16273 37.9282 6.71506 37.9282 6.24828C37.9282 5.7815 37.7428 5.33384 37.4127 5.00377C37.0826 4.67371 36.635 4.48828 36.1682 4.48828Z" fill="#F1BC19"/>
<path d="M37.9278 9.41602C37.818 9.41602 37.7093 9.43764 37.6079 9.47965C37.5064 9.52167 37.4143 9.58324 37.3367 9.66087C37.259 9.7385 37.1974 9.83066 37.1554 9.93209C37.1134 10.0335 37.0918 10.1422 37.0918 10.252C37.0918 10.3618 37.1134 10.4705 37.1554 10.5719C37.1974 10.6734 37.259 10.7655 37.3367 10.8432C37.4143 10.9208 37.5064 10.9824 37.6079 11.0244C37.7093 11.0664 37.818 11.088 37.9278 11.088C38.0376 11.088 38.1463 11.0664 38.2477 11.0244C38.3491 10.9824 38.4413 10.9208 38.5189 10.8432C38.5966 10.7655 38.6581 10.6734 38.7002 10.5719C38.7422 10.4705 38.7638 10.3618 38.7638 10.252C38.7638 10.1422 38.7422 10.0335 38.7002 9.93209C38.6581 9.83066 38.5966 9.7385 38.5189 9.66087C38.4413 9.58324 38.3491 9.52167 38.2477 9.47965C38.1463 9.43764 38.0376 9.41602 37.9278 9.41602Z" fill="#77CBD2"/>
<path d="M33.9684 32.4721C33.7467 32.4721 33.534 32.5601 33.3772 32.7169C33.2205 32.8737 33.1324 33.0863 33.1324 33.3081C33.1324 33.5298 33.2205 33.7424 33.3772 33.8992C33.534 34.056 33.7467 34.1441 33.9684 34.1441C34.1901 34.1441 34.4028 34.056 34.5595 33.8992C34.7163 33.7424 34.8044 33.5298 34.8044 33.3081C34.8044 33.0863 34.7163 32.8737 34.5595 32.7169C34.4028 32.5601 34.1901 32.4721 33.9684 32.4721ZM6.16039 25.8721C5.69361 25.8721 5.24595 26.0575 4.91588 26.3876C4.58582 26.7176 4.40039 27.1653 4.40039 27.6321C4.40039 28.0989 4.58582 28.5465 4.91588 28.8766C5.24595 29.2066 5.69361 29.3921 6.16039 29.3921C6.62717 29.3921 7.07483 29.2066 7.4049 28.8766C7.73496 28.5465 7.92039 28.0989 7.92039 27.6321C7.92039 27.1653 7.73496 26.7176 7.4049 26.3876C7.07483 26.0575 6.62717 25.8721 6.16039 25.8721Z" fill="#FBCD59"/>
<path d="M10.6924 37.4004C10.4707 37.4004 10.2581 37.4885 10.1013 37.6452C9.94452 37.802 9.85645 38.0147 9.85645 38.2364C9.85645 38.4581 9.94452 38.6708 10.1013 38.8275C10.2581 38.9843 10.4707 39.0724 10.6924 39.0724C10.9142 39.0724 11.1268 38.9843 11.2836 38.8275C11.4404 38.6708 11.5284 38.4581 11.5284 38.2364C11.5284 38.0147 11.4404 37.802 11.2836 37.6452C11.1268 37.4885 10.9142 37.4004 10.6924 37.4004Z" fill="#77CBD2"/>
<path d="M33.3954 12.2314C33.1854 12.2314 32.9839 12.3149 32.8354 12.4634C32.6869 12.6119 32.6034 12.8134 32.6034 13.0234C32.6034 13.2335 32.6869 13.4349 32.8354 13.5835C32.9839 13.732 33.1854 13.8154 33.3954 13.8154C33.6055 13.8154 33.8069 13.732 33.9555 13.5835C34.104 13.4349 34.1874 13.2335 34.1874 13.0234C34.1874 12.8134 34.104 12.6119 33.9555 12.4634C33.8069 12.3149 33.6055 12.2314 33.3954 12.2314ZM7.83144 21.2074C7.53971 21.2074 7.25992 21.3233 7.05363 21.5296C6.84734 21.7359 6.73145 22.0157 6.73145 22.3074C6.73145 22.5992 6.84734 22.879 7.05363 23.0853C7.25992 23.2916 7.53971 23.4074 7.83144 23.4074C8.12318 23.4074 8.40297 23.2916 8.60926 23.0853C8.81555 22.879 8.93144 22.5992 8.93144 22.3074C8.93144 22.0157 8.81555 21.7359 8.60926 21.5296C8.40297 21.3233 8.12318 21.2074 7.83144 21.2074Z" fill="white"/>
<path d="M29.9643 31.0195C29.7883 30.0955 29.3923 29.5235 28.5123 29.2595C28.4683 29.2595 28.4243 29.2155 28.3803 29.2155C28.2923 29.1715 28.2043 29.1715 28.1163 29.1275C27.5883 28.9075 24.2883 27.6755 24.2883 27.6755C24.0243 27.5875 23.8483 27.4115 23.7603 27.1915C23.5843 26.8395 23.6723 25.9155 23.6723 25.9155C23.6723 25.9155 22.3083 26.3995 21.4723 26.5315C20.6363 26.6195 18.8323 25.5195 18.8323 25.5195C18.8323 25.5195 18.7883 26.8395 18.7443 27.1475C18.7003 27.3675 18.4363 27.5875 18.1723 27.6315L14.9603 28.8195C14.6083 28.9075 14.3003 29.0395 13.9923 29.2155C13.2003 29.6995 12.8043 30.4475 12.5843 31.0635C12.5843 31.0635 12.3643 32.5155 12.3643 32.5595C12.3643 32.7795 12.3203 32.9995 12.3203 33.2195C15.7523 35.5515 18.4803 36.1675 23.1883 35.9915C25.3443 35.9035 28.5123 34.8475 30.1843 34.0115C30.1403 32.1195 29.9643 31.0195 29.9643 31.0195Z" fill="#FABF82"/>
<path d="M28.5123 29.2603C28.4683 29.2603 28.4243 29.2163 28.3803 29.2163C28.2923 29.1723 28.2043 29.1723 28.1163 29.1283C27.7643 28.9963 26.4003 28.4683 25.3883 28.1163H25.3443C24.2003 28.6443 22.6603 29.4803 21.2083 29.4803C19.7563 29.4803 18.3043 28.6883 17.0723 28.0723L16.9403 28.1163L14.9603 28.8203C14.6083 28.9083 14.3003 29.0403 13.9923 29.2163C13.2003 29.7003 12.8043 30.4483 12.5843 31.0643C12.5843 31.0643 12.3643 32.5163 12.3643 32.5603C12.3643 32.7803 12.3203 34.9363 12.3203 35.2003C15.7523 37.5323 18.4803 38.1483 23.1883 37.9723C25.3443 37.8843 28.5123 36.8283 30.1843 35.9923C30.0963 34.1443 29.9203 31.0643 29.9203 31.0643C29.7883 30.0963 29.3923 29.5683 28.5123 29.2603Z" fill="#88CDD7"/>
<path d="M16.5 20.4164C16.412 20.2844 14.828 16.6324 16.06 14.2124C16.588 13.2004 17.512 12.5404 18.788 12.2324C19.536 11.7044 20.46 11.4404 21.34 11.4404C22.088 11.4404 22.836 11.6164 23.496 12.0124C23.848 12.2324 24.156 12.4084 24.42 12.5404C25.212 12.9804 25.476 13.1564 25.916 13.1564C25.96 13.1564 26.004 13.1564 26.092 13.1564H26.136C26.224 13.1564 26.268 13.1564 26.312 13.1564C26.708 13.1564 26.84 13.3764 26.84 13.5524C26.884 13.9924 26.752 14.3884 26.576 14.7404C26.444 15.0484 26.356 15.3124 26.4 15.5764C27.192 18.2164 25.96 20.3724 25.916 20.5044L25.608 21.1204V20.3284C25.608 20.3284 25.608 18.2604 25.124 16.9404C24.508 17.2924 23.76 17.4684 22.924 17.4684C21.516 17.4684 19.932 16.9404 18.348 15.9724C16.94 17.0724 16.94 20.3284 16.94 20.3284V21.3404L16.5 20.4164Z" fill="#BE7841"/>
<path d="M21.3844 11.6158C22.0444 11.6158 22.7484 11.7918 23.4524 12.1878C24.9924 13.0678 25.3004 13.3318 26.0044 13.3318C26.0484 13.3318 26.1364 13.3318 26.1804 13.3318C26.2684 13.3318 26.3564 13.3318 26.4004 13.3318C26.5764 13.3318 26.7084 13.3758 26.7084 13.5518C26.7964 14.3438 26.1364 15.0038 26.3124 15.6198C27.1044 18.2158 25.8284 20.3718 25.8284 20.3718C25.8284 20.3718 25.8284 17.9958 25.2124 16.6758C24.5964 17.0718 23.8044 17.2918 22.8804 17.2918C21.5164 17.2918 19.9324 16.8078 18.3044 15.7518C16.6764 16.7638 16.7204 20.2838 16.7204 20.2838C16.7204 20.2838 13.6404 13.5078 18.8764 12.3638C19.5804 11.9238 20.4164 11.6158 21.3844 11.6158ZM21.3844 11.1758C20.4604 11.1758 19.5364 11.4838 18.7444 12.0118C17.3364 12.3198 16.4124 13.0238 15.8404 14.0798C14.5644 16.6318 16.2364 20.3278 16.2804 20.5038L17.1164 22.3518V20.2838C17.1164 19.4038 17.3364 17.1158 18.3044 16.1918C19.8444 17.1598 21.4284 17.6438 22.8804 17.6438C23.6284 17.6438 24.3764 17.5118 24.9484 17.2038C25.3444 18.4798 25.3444 20.2838 25.3444 20.2838V21.9118L26.1804 20.5038C26.2244 20.4158 27.5444 18.1718 26.7084 15.3998C26.6644 15.2238 26.7524 15.0038 26.8844 14.6958C27.0164 14.3438 27.1924 13.9038 27.1484 13.3758C27.1484 13.2438 27.0164 12.8038 26.4004 12.8038C26.3124 12.8038 26.2684 12.8038 26.1804 12.8038H26.1364C26.0924 12.8038 26.0484 12.8038 26.0044 12.8038C25.6084 12.8038 25.3884 12.6718 24.5964 12.2318C24.3324 12.0998 24.0684 11.9238 23.6724 11.7038C22.9244 11.3518 22.1324 11.1758 21.3844 11.1758Z" fill="#472B29"/>
<path d="M15.3556 37.0474C15.2676 37.0474 15.2236 37.0034 15.2236 36.9154V35.1554C15.2236 35.0674 15.2676 35.0234 15.3556 35.0234C15.4436 35.0234 15.4876 35.0674 15.4876 35.1554V36.9154C15.4876 37.0034 15.4436 37.0474 15.3556 37.0474ZM26.9276 37.3554C26.8396 37.3554 26.7956 37.3114 26.7956 37.2234V35.1994C26.7956 35.1114 26.8396 35.0674 26.9276 35.0674C27.0156 35.0674 27.0596 35.1114 27.0596 35.1994V37.2234C27.0596 37.3114 27.0156 37.3554 26.9276 37.3554Z" fill="#00A5A5"/>
<path d="M26.5761 19.3603C26.5321 19.3603 26.4881 19.3603 26.4001 19.3603C25.9601 19.3603 26.0041 19.4923 26.0481 19.2283C26.0921 18.7443 25.8721 16.8963 25.8721 16.7643C25.8721 14.7843 23.8041 13.2003 21.2521 13.1123H21.2081H21.1641C18.6121 13.2003 16.5441 14.7843 16.5441 16.7643C16.5441 16.8523 16.5001 18.7443 16.5001 19.2283C16.5001 19.4923 16.4121 19.3163 15.9721 19.3603C15.9281 19.3603 15.8841 19.3603 15.7961 19.3603C15.3121 19.4043 14.9601 19.6683 14.8721 20.0643C14.9161 20.1083 15.1361 21.6923 15.4881 22.3523C15.6641 22.7043 15.9721 22.7483 16.2801 22.9683C16.4561 23.1003 16.5001 23.2323 16.5441 23.4083C16.7201 24.1123 17.2041 24.6843 17.7321 25.2123C17.9961 25.4763 19.7121 27.2803 21.2081 27.1923C22.7041 27.1483 24.4201 25.4323 24.6841 25.2123C25.2121 24.6843 25.6961 24.1123 25.8721 23.4083C25.9161 23.2323 25.9601 23.0563 26.1361 22.9683C26.4441 22.7483 26.7521 22.7043 26.9281 22.3523C27.2801 21.7363 27.5001 20.1083 27.5441 20.0643C27.4121 19.6683 27.0601 19.4043 26.5761 19.3603Z" fill="#FDDBBC"/>
<path d="M21.2521 22.4846C21.5601 22.4846 21.8241 22.3526 22.0441 22.1326C22.0441 22.1326 22.0441 22.0886 22.0441 22.0446C22.0441 22.0446 22.0001 22.0446 21.9561 22.0446C21.8241 22.2206 21.5601 22.3086 21.2521 22.3086C20.9441 22.3086 20.7241 22.2206 20.5481 22.0446H20.5041H20.4601C20.4601 22.0446 20.4161 22.0886 20.4601 22.1326C20.6361 22.3526 20.9441 22.4846 21.2521 22.4846ZM20.2841 18.3926L20.4601 18.0406C19.6681 17.8646 18.7441 17.8646 17.9521 18.1286L18.1721 18.4806C18.8321 18.2606 19.6241 18.2606 20.2841 18.3926ZM24.3321 18.3926L24.5081 18.0406C23.7161 17.8646 22.7921 17.8646 22.0001 18.1286L22.2201 18.4806C22.8801 18.2606 23.6721 18.2606 24.3321 18.3926ZM19.1401 18.9206C18.9641 18.9206 18.7881 19.0526 18.7001 19.2286C18.7441 19.2286 18.7441 19.2286 18.7881 19.2286C18.9641 19.2286 19.0961 19.3606 19.0961 19.5366C19.0961 19.7126 18.9641 19.8446 18.7881 19.8446C18.7441 19.8446 18.7001 19.8446 18.6561 19.8006C18.7441 20.1086 18.9201 20.2846 19.1841 20.2846C19.4921 20.2846 19.7561 19.9766 19.7561 19.5806C19.6681 19.2286 19.4041 18.9206 19.1401 18.9206ZM23.3201 18.9206C23.1441 18.9206 23.0121 19.0086 22.9241 19.1406C22.9681 19.1406 22.9681 19.1406 23.0121 19.1406C23.1881 19.1406 23.3201 19.2726 23.3201 19.4486C23.3201 19.6246 23.1881 19.7566 23.0121 19.7566C22.9241 19.7566 22.8361 19.7126 22.7921 19.6246C22.7921 20.0206 23.0561 20.3286 23.3641 20.3286C23.6721 20.3286 23.9361 20.0206 23.9361 19.6246C23.8921 19.2286 23.6281 18.9206 23.3201 18.9206ZM23.5841 23.2766C23.6281 23.2766 23.6281 23.2326 23.5841 23.1886C23.5841 23.1446 23.5401 23.1446 23.4961 23.1886C23.0121 23.5846 22.1761 23.8046 21.2521 23.8046C20.3281 23.8046 19.4921 23.5846 19.0081 23.1886C19.0081 23.1886 19.0081 23.1886 18.9641 23.1886H18.9201C18.9201 23.2326 18.9201 23.2326 18.9201 23.2766C19.4921 23.7166 20.3721 24.0246 21.2521 24.0246C22.1321 24.0246 23.0121 23.7606 23.5841 23.2766ZM21.8681 25.6086C21.9121 25.6086 21.9121 25.5646 21.9121 25.5206C21.9121 25.4766 21.8681 25.4326 21.8681 25.4326H20.7241C20.6801 25.4766 20.6801 25.4766 20.6801 25.5206C20.6801 25.5646 20.7241 25.6086 20.7241 25.6086H21.8681Z" fill="#512C2B"/>
<path d="M21.6916 38.2805C17.7756 38.2805 15.2236 37.4885 12.2316 35.4645C12.1876 35.4205 12.1436 35.3325 12.1436 35.2445C12.1436 35.2005 12.1436 35.0245 12.1436 34.8045C12.1436 33.8365 12.1876 31.8565 12.4076 31.0645C12.7156 30.0085 13.1116 29.5685 13.9036 29.0845C14.2116 28.9085 14.5636 28.7765 14.9156 28.6445L18.0396 27.5005C18.2596 27.4565 18.4356 27.2805 18.4796 27.1485C18.4796 27.1045 18.5236 26.8845 18.5676 26.2685C18.1276 25.9605 17.7316 25.6525 17.6436 25.5645C16.9396 24.9045 16.5436 24.2885 16.4116 23.6285C16.3676 23.4525 16.3236 23.3645 16.2356 23.2765C16.1476 23.1885 16.0596 23.1445 15.9716 23.1005C15.7516 22.9685 15.5316 22.8365 15.3996 22.5725C15.0476 21.8685 14.7396 20.5925 14.7396 20.1525V20.1085C14.8276 19.6245 15.3116 19.2725 15.8836 19.2285C15.9276 19.2285 16.0156 19.2285 16.0596 19.2285C16.1916 19.2285 16.2796 19.2285 16.3676 19.2285C16.3676 18.7005 16.3676 17.5565 16.4116 17.0725C16.4116 16.9405 16.4116 16.8525 16.4116 16.8525C16.4116 14.7845 18.5236 13.0685 21.1636 12.9365H21.2076L21.2516 13.1565V12.9365H21.2956C23.9796 13.0245 26.0916 14.7405 26.0916 16.8525C26.0916 16.8965 26.0916 17.0285 26.1356 17.2045C26.2236 17.9965 26.3116 18.8765 26.2676 19.2285V19.2725C26.3116 19.2725 26.3556 19.2725 26.3556 19.2725H26.3996C26.4436 19.2725 26.4876 19.2725 26.5756 19.2725C27.1476 19.3165 27.5876 19.6685 27.7196 20.1525V20.1965C27.7196 20.6805 27.4556 21.9565 27.0596 22.6165C26.8836 22.9245 26.6636 23.0565 26.4876 23.1445C26.3996 23.1885 26.3116 23.2325 26.2236 23.3205C26.1356 23.4085 26.0916 23.4525 26.0476 23.6725C25.8716 24.3325 25.4756 24.9485 24.8156 25.6085C24.6836 25.6965 24.2876 26.0485 23.8476 26.4005C23.8476 26.7965 23.8916 27.0605 23.9356 27.1925C23.9796 27.3245 24.1116 27.5005 24.3316 27.5445C24.5076 27.5885 27.6316 28.7765 28.1596 28.9965C28.2476 29.0405 28.3356 29.0845 28.4236 29.0845C28.4676 29.0845 28.5116 29.1285 28.5556 29.1285C29.4796 29.3925 29.9636 30.0085 30.1836 31.0645C30.1836 31.0645 30.1836 31.0645 30.1836 31.1085C30.1836 31.1085 30.3596 34.1445 30.4476 36.0365C30.4476 36.1245 30.4036 36.2125 30.3156 36.2565C28.5556 37.1365 25.3436 38.1925 23.2316 38.2805C22.7036 38.2365 22.1756 38.2805 21.6916 38.2805ZM12.5836 35.1565C15.8396 37.3565 18.5236 38.0165 23.2316 37.7965C25.2116 37.7085 28.2476 36.7405 30.0076 35.9045C29.9196 34.1005 29.7876 31.3725 29.7876 31.1525C29.6116 30.2285 29.2596 29.7885 28.4676 29.5685C28.4236 29.5685 28.3796 29.5245 28.2916 29.5245C28.2036 29.4805 28.1156 29.4805 28.0276 29.4365C27.4996 29.2165 24.2436 28.0285 24.1996 27.9845C23.9356 27.8965 23.6716 27.7205 23.5396 27.4125C23.4516 27.1925 23.4076 26.8405 23.4076 26.3125C23.4076 26.2245 23.4516 26.1805 23.4956 26.1365C24.0236 25.7405 24.4196 25.4325 24.5076 25.3445C25.1236 24.7285 25.4756 24.2005 25.6076 23.6285C25.6516 23.4085 25.6956 23.2325 25.9596 23.0565C26.0476 22.9685 26.1796 22.9245 26.2676 22.8365C26.4436 22.7485 26.5756 22.6605 26.7076 22.4845C27.0596 21.8685 27.2796 20.7245 27.2796 20.3285C27.1916 20.0645 26.9276 19.8445 26.5756 19.8005C26.5316 19.8005 26.4876 19.8005 26.4436 19.8005H26.3556C26.0916 19.8005 26.0036 19.8005 25.9156 19.6685C25.8276 19.5805 25.8276 19.4485 25.8276 19.3605V19.3165C25.8716 19.0085 25.7396 17.9085 25.6956 17.3805C25.6516 17.1605 25.6516 17.0285 25.6516 16.9845C25.6516 15.1365 23.7156 13.5965 21.2516 13.5085C21.2516 13.5085 21.2516 13.5085 21.2076 13.5085H21.1636C18.6996 13.5965 16.7636 15.1365 16.7636 16.9845C16.7636 16.9845 16.7636 17.0725 16.7636 17.2045C16.7636 17.7325 16.7196 19.0525 16.7196 19.4485C16.7196 19.5365 16.7196 19.6685 16.6316 19.7565C16.5436 19.8445 16.4116 19.8445 16.2796 19.8005C16.1916 19.8005 16.1036 19.7565 15.9716 19.8005C15.9276 19.8005 15.8836 19.8005 15.7956 19.8005C15.4436 19.8445 15.1356 20.0205 15.0916 20.3285C15.0916 20.7245 15.3556 21.9125 15.6636 22.4845C15.7516 22.6605 15.8836 22.7485 16.1036 22.8365C16.1916 22.8805 16.3236 22.9685 16.4116 23.0565C16.6316 23.2325 16.6756 23.4525 16.7196 23.6285C16.8516 24.2005 17.2036 24.7285 17.8196 25.3445C17.9076 25.4325 18.3036 25.7405 18.7876 26.0925C18.8316 26.1365 18.8756 26.2245 18.8756 26.2685C18.8316 26.8405 18.8316 27.1925 18.7876 27.3685C18.6996 27.7205 18.3916 27.9405 18.0396 28.0285L14.9156 29.1725C14.5636 29.2605 14.2556 29.3925 13.9916 29.5685C13.2876 30.0085 12.9356 30.3165 12.7156 31.2845C12.5396 32.0325 12.4956 34.0565 12.4956 34.9365C12.5836 34.9365 12.5836 35.0685 12.5836 35.1565Z" fill="#472B29"/>
<path d="M26.6198 21.5161L26.3558 21.4721L26.4438 20.6801L26.0038 20.8561L25.9158 20.5921L26.5758 20.3281C26.6198 20.3281 26.6638 20.3281 26.7078 20.3281C26.7518 20.3721 26.7518 20.4161 26.7518 20.4601L26.6198 21.5161ZM15.9718 21.3401L15.8398 20.3281C15.8398 20.2841 15.8398 20.2401 15.8838 20.1961C15.9278 20.1521 15.9718 20.1521 16.0158 20.1961L16.6758 20.4601L16.5878 20.7241L16.1478 20.5481L16.2358 21.3401H15.9718Z" fill="#895D3D"/>
<path d="M16.5441 23.3204C16.5001 23.3204 16.4561 23.2764 16.4561 23.2324L16.5441 19.4484C16.5441 19.4044 16.5881 19.3604 16.6321 19.3604C16.6761 19.3604 16.7201 19.4044 16.7201 19.4484L16.6321 23.2324C16.6321 23.2764 16.5881 23.3204 16.5441 23.3204ZM25.9601 23.3204C25.9161 23.3204 25.8721 23.2764 25.8721 23.2324L25.7841 19.4484C25.7841 19.4044 25.8281 19.3604 25.8721 19.3604C25.9161 19.3604 25.9601 19.4044 25.9601 19.4484L26.0481 23.2324C26.0481 23.2764 26.0041 23.3204 25.9601 23.3204ZM21.2521 27.3244C20.3281 27.3244 18.7441 26.1804 18.6561 26.1364C18.6121 26.0924 18.6121 26.0484 18.6121 26.0044C18.6121 25.9604 18.7001 25.9604 18.7441 25.9604C18.7441 25.9604 20.4601 27.1924 21.2961 27.1044C22.1321 27.0164 23.4961 26.0484 23.4961 26.0484C23.5401 26.0044 23.6281 26.0044 23.6281 26.0924C23.6281 26.1804 23.6721 26.2244 23.5841 26.2244C23.5401 26.2684 22.1761 27.2364 21.2961 27.3244C21.3401 27.3244 21.2961 27.3244 21.2521 27.3244Z" fill="#472B29"/>
<path d="M26.7082 13.5523C26.6642 13.2883 26.4002 13.3323 26.1362 13.3763C25.3002 13.4203 25.1242 13.1563 23.4082 12.2323C21.7362 11.3083 20.0202 11.6603 18.8762 12.4963C13.6402 13.6403 16.7202 20.4163 16.7202 20.4163C16.7202 20.4163 16.7202 16.8523 18.3482 15.7963C21.0762 17.5563 23.6722 17.7763 25.2562 16.7203C25.8722 18.0843 25.8722 20.4163 25.8722 20.4163C25.8722 20.4163 27.1482 18.2603 26.3562 15.6643C26.0922 14.9603 26.7962 14.3443 26.7082 13.5523Z" fill="#BE7841"/>
<path d="M26.0039 20.328H25.7839C25.7839 20.284 25.7839 18.084 25.2559 16.764C23.5399 17.82 20.8999 17.424 18.3039 15.796C16.7639 16.896 16.7639 20.284 16.7639 20.284H16.5439C16.5439 20.152 16.5439 16.632 18.2159 15.532C18.2599 15.488 18.3039 15.488 18.3479 15.532C20.9439 17.16 23.5839 17.512 25.2559 16.456C25.2999 16.456 25.2999 16.412 25.3439 16.456C25.3879 16.456 25.3879 16.5 25.4319 16.5C26.0039 17.908 26.0039 20.196 26.0039 20.328Z" fill="#472B29"/>
</svg>
