<svg width="20" height="20" viewBox="0 0 20 20" fill="none" xmlns="http://www.w3.org/2000/svg">
<path d="M15.0001 2.08691C14.2523 2.08691 13.5046 2.3704 12.9379 2.93734L3.71512 12.1593C3.54013 12.3343 3.41197 12.5519 3.34403 12.7909L2.10786 17.1195C2.07738 17.2266 2.07606 17.3399 2.10405 17.4477C2.13204 17.5555 2.18831 17.6538 2.26706 17.7326C2.34581 17.8113 2.44416 17.8676 2.55195 17.8956C2.65974 17.9236 2.77305 17.9222 2.88016 17.8918L7.20959 16.6556L7.2104 16.6548C7.4477 16.5866 7.66478 16.46 7.84028 16.2845L17.0623 7.06169C18.1961 5.92788 18.1961 4.07114 17.0623 2.93734C16.4956 2.3704 15.7479 2.08691 15.0001 2.08691ZM15.0001 3.32959C15.4254 3.32959 15.8502 3.49348 16.1777 3.82113H16.1785C16.8347 4.47732 16.8347 5.5217 16.1785 6.1779L15.3704 6.986L13.0136 4.62923L13.8217 3.82113C14.1492 3.49348 14.5748 3.32959 15.0001 3.32959ZM12.1298 5.51302L14.4866 7.86979L6.95568 15.4007C6.93125 15.425 6.90031 15.4436 6.86535 15.4536L3.61828 16.3813L4.54601 13.1335V13.1326C4.55557 13.0991 4.57307 13.069 4.59891 13.0431L12.1298 5.51302Z" fill="black"/>
</svg>
