<svg width="21" height="21" viewBox="0 0 21 21" fill="none" xmlns="http://www.w3.org/2000/svg">
<path d="M9.10058 2.10059C5.24288 2.10059 2.10059 5.24288 2.10059 9.10058C2.10059 12.9583 5.24288 16.1006 9.10058 16.1006C10.7781 16.1006 12.3188 15.5049 13.5262 14.516L17.7057 18.6955C17.7702 18.7627 17.8474 18.8163 17.9329 18.8533C18.0184 18.8902 18.1104 18.9097 18.2035 18.9107C18.2967 18.9116 18.389 18.894 18.4753 18.8588C18.5615 18.8236 18.6398 18.7715 18.7057 18.7057C18.7715 18.6398 18.8236 18.5615 18.8588 18.4753C18.894 18.389 18.9116 18.2967 18.9107 18.2035C18.9097 18.1104 18.8902 18.0184 18.8533 17.9329C18.8163 17.8474 18.7627 17.7702 18.6955 17.7057L14.516 13.5262C15.5049 12.3188 16.1006 10.7781 16.1006 9.10058C16.1006 5.24288 12.9583 2.10059 9.10058 2.10059ZM9.10058 3.50059C12.2017 3.50059 14.7006 5.9995 14.7006 9.10058C14.7006 12.2017 12.2017 14.7006 9.10058 14.7006C5.9995 14.7006 3.50059 12.2017 3.50059 9.10058C3.50059 5.9995 5.9995 3.50059 9.10058 3.50059Z" fill="black"/>
</svg>
