<svg width="30" height="30" viewBox="0 0 30 30" fill="none" xmlns="http://www.w3.org/2000/svg">
<path d="M18.75 15.625H19.375C19.72 15.625 20 15.905 20 16.25V16.875C20 17.22 19.72 17.5 19.375 17.5H18.75C18.405 17.5 18.125 17.22 18.125 16.875V16.25C18.125 15.905 18.405 15.625 18.75 15.625Z" fill="#434343"/>
<path d="M18.125 20V23.125C18.125 23.47 18.405 23.75 18.75 23.75H19.375C19.72 23.75 20 23.47 20 23.125V20C20 19.655 19.72 19.375 19.375 19.375H18.75C18.405 19.375 18.125 19.655 18.125 20Z" fill="#434343"/>
<path d="M22.1875 16.25V16.875C22.1875 17.22 22.4675 17.5 22.8125 17.5H23.4375C23.7825 17.5 24.0625 17.22 24.0625 16.875V16.25C24.0625 15.905 23.7825 15.625 23.4375 15.625H22.8125C22.4675 15.625 22.1875 15.905 22.1875 16.25Z" fill="#434343"/>
<path d="M22.1875 20V23.125C22.1875 23.47 22.4675 23.75 22.8125 23.75H23.4375C23.7825 23.75 24.0625 23.47 24.0625 23.125V20C24.0625 19.655 23.7825 19.375 23.4375 19.375H22.8125C22.4675 19.375 22.1875 19.655 22.1875 20Z" fill="#434343"/>
<path d="M14.0625 16.25V16.875C14.0625 17.22 14.3425 17.5 14.6875 17.5H15.3125C15.6575 17.5 15.9375 17.22 15.9375 16.875V16.25C15.9375 15.905 15.6575 15.625 15.3125 15.625H14.6875C14.3425 15.625 14.0625 15.905 14.0625 16.25Z" fill="#434343"/>
<path d="M14.0625 20V23.125C14.0625 23.47 14.3425 23.75 14.6875 23.75H15.3125C15.6575 23.75 15.9375 23.47 15.9375 23.125V20C15.9375 19.655 15.6575 19.375 15.3125 19.375H14.6875C14.3425 19.375 14.0625 19.655 14.0625 20Z" fill="#434343"/>
<path d="M5.9375 16.25V16.875C5.9375 17.22 6.2175 17.5 6.5625 17.5H7.1875C7.5325 17.5 7.8125 17.22 7.8125 16.875V16.25C7.8125 15.905 7.5325 15.625 7.1875 15.625H6.5625C6.2175 15.625 5.9375 15.905 5.9375 16.25Z" fill="#434343"/>
<path d="M10 16.25V16.875C10 17.22 10.28 17.5 10.625 17.5H11.25C11.595 17.5 11.875 17.22 11.875 16.875V16.25C11.875 15.905 11.595 15.625 11.25 15.625H10.625C10.28 15.625 10 15.905 10 16.25Z" fill="#434343"/>
<path d="M5.9375 20V23.125C5.9375 23.47 6.2175 23.75 6.5625 23.75H7.1875C7.5325 23.75 7.8125 23.47 7.8125 23.125V20C7.8125 19.655 7.5325 19.375 7.1875 19.375H6.5625C6.2175 19.375 5.9375 19.655 5.9375 20Z" fill="#434343"/>
<path d="M10 20V23.125C10 23.47 10.28 23.75 10.625 23.75H11.25C11.595 23.75 11.875 23.47 11.875 23.125V20C11.875 19.655 11.595 19.375 11.25 19.375H10.625C10.28 19.375 10 19.655 10 20Z" fill="#434343"/>
<path d="M19.6469 26.5625H4.0625C3.37187 26.5625 2.8125 26.0031 2.8125 25.3125V15.3125C2.8125 13.9319 3.93187 12.8125 5.3125 12.8125H5.9375" stroke="#434343" stroke-width="1.875" stroke-miterlimit="10" stroke-linecap="round" stroke-linejoin="round"/>
<path d="M9.0625 12.8121V7.23836C9.0625 6.61961 9.36812 6.04023 9.87875 5.69086L14.2944 2.66961C14.72 2.37836 15.2806 2.37836 15.7063 2.66961L20.1219 5.69086C20.6325 6.04023 20.9381 6.61961 20.9381 7.23836V12.8121H24.6881C26.0688 12.8121 27.1881 13.9315 27.1881 15.3121V25.3121C27.1881 26.0027 26.6288 26.5621 25.9381 26.5621H24.0631" stroke="#434343" stroke-width="1.875" stroke-miterlimit="10" stroke-linecap="round" stroke-linejoin="round"/>
<path d="M17.1875 10C17.1875 11.2081 16.2081 12.1875 15 12.1875C13.7919 12.1875 12.8125 11.2081 12.8125 10C12.8125 8.79188 13.7919 7.8125 15 7.8125" stroke="#434343" stroke-width="1.875" stroke-miterlimit="10" stroke-linecap="round" stroke-linejoin="round"/>
</svg>
