<svg xmlns="http://www.w3.org/2000/svg"  viewBox="0 0 30 30" width="30px" height="30px"><path d="M 14.984375 3 A 1.0001 1.0001 0 0 0 14.292969 3.2929688 L 10.292969 7.2929688 A 1.0001 1.0001 0 0 0 10 8 L 10 10 L 3 10 C 2.448 11 2 11.448 2 12 L 2 15 L 2 25 A 1.0001 1.0001 0 0 0 3 26 L 11 26 L 19 26 L 27 26 A 1.0001 1.0001 0 0 0 28 25 L 28 13 L 28 12 C 28 11.448 27.552 11 27 10 L 20 10 L 20 8 A 1.0001 1.0001 0 0 0 19.707031 7.2929688 L 15.707031 3.2929688 A 1.0001 1.0001 0 0 0 14.984375 3 z M 15 5.4140625 L 18 8.4140625 L 18 13 L 18 24 L 16 24 L 16 23 C 16 22.448 15.552 22 15 22 C 14.448 22 14 22.448 14 23 L 14 24 L 12 24 L 12 13 L 12 8.4140625 L 15 5.4140625 z M 15 9 A 1 1 0 0 0 15 11 A 1 1 0 0 0 15 9 z M 15 13 C 14.448 13 14 13.448 14 14 L 14 19 C 14 19.552 14.448 20 15 20 C 15.552 20 16 19.552 16 19 L 16 14 C 16 13.448 15.552 13 15 13 z M 4 15 L 10 15 L 10 24 L 8 24 L 8 23 C 8 22.448 7.552 22 7 22 C 6.448 22 6 22.448 6 23 L 6 24 L 4 24 L 4 15 z M 20 15 L 26 15 L 26 24 L 24 24 L 24 23 C 24 22.448 23.552 22 23 22 C 22.448 22 22 22.448 22 23 L 22 24 L 20 24 L 20 15 z M 7 17 C 6.448 17 6 17.448 6 18 L 6 19 C 6 19.552 6.448 20 7 20 C 7.552 20 8 19.552 8 19 L 8 18 C 8 17.448 7.552 17 7 17 z M 23 17 C 22.448 17 22 17.448 22 18 L 22 19 C 22 19.552 22.448 20 23 20 C 23.552 20 24 19.552 24 19 L 24 18 C 24 17.448 23.552 17 23 17 z"/></svg>