<?xml version="1.0"?><svg xmlns="http://www.w3.org/2000/svg"  viewBox="0 0 30 30" width="30px" height="30px">    <path d="M 15.041016 3 A 1.0001 1.0001 0 0 0 14.486328 3.1425781 L 9.4863281 6.1425781 A 1.0001 1.0001 0 0 0 10 8.015625 L 10 26 L 12 26 L 12 23 C 12 22.448 12.448 22 13 22 L 17 22 C 17.552 22 18 22.448 18 23 L 18 26 L 20 26 L 20 8.015625 A 1.0001 1.0001 0 0 0 20.513672 6.1425781 L 15.513672 3.1425781 A 1.0001 1.0001 0 0 0 15.041016 3 z M 15 7 C 16.105 7 17 7.895 17 9 C 17 10.105 16.105 11 15 11 C 13.895 11 13 10.105 13 9 C 13 7.895 13.895 7 15 7 z M 3 11 C 2.448 11 2 11.448 2 12 C 2 12.552 2.448 13 3 13 L 3 26 L 8 26 L 8 24 L 6 24 L 6 22 L 8 22 L 8 20 L 6 20 L 6 18 L 8 18 L 8 16 L 6 16 L 6 14 L 8 14 L 8 12 L 8 11 L 3 11 z M 22 11 L 22 13 L 22 14 L 24 14 L 24 16 L 22 16 L 22 18 L 24 18 L 24 20 L 22 20 L 22 22 L 24 22 L 24 24 L 22 24 L 22 26 L 27 26 L 27 13 C 27.552 13 28 12.552 28 12 C 28 11.448 27.552 11 27 11 L 22 11 z M 12 14 L 14 14 L 14 16 L 12 16 L 12 14 z M 16 14 L 18 14 L 18 16 L 16 16 L 16 14 z M 12 18 L 14 18 L 14 20 L 12 20 L 12 18 z M 16 18 L 18 18 L 18 20 L 16 20 L 16 18 z"/></svg>